<?xml version="1.0" standalone="no"?>
<!DOCTYPE svg PUBLIC "-//W3C//DTD SVG 20010904//EN"
 "http://www.w3.org/TR/2001/REC-SVG-20010904/DTD/svg10.dtd">
<svg version="1.0" xmlns="http://www.w3.org/2000/svg"
 width="833.000000pt" height="833.000000pt" viewBox="0 0 833.000000 833.000000"
 preserveAspectRatio="xMidYMid meet">
<metadata>
Created by potrace 1.14, written by Peter Selinger 2001-2017
</metadata>
<g transform="translate(0.000000,833.000000) scale(0.100000,-0.100000)"
fill="#000000" stroke="none">
<path d="M2500 7958 c-57 -39 -75 -72 -75 -138 0 -65 18 -99 74 -137 45 -31
107 -35 504 -31 191 2 347 2 347 1 0 -3 -550 -1176 -553 -1179 -2 -2 -621 104
-1375 236 -754 132 -1378 240 -1387 240 -13 0 -15 -23 -15 -164 l0 -164 68
-12 c426 -72 2553 -447 2556 -451 3 -3 -87 -203 -200 -445 -1286 -2749 -1229
-2629 -1250 -2626 -11 2 -73 6 -139 9 -113 4 -159 -1 -280 -31 -16 -4 -57 41
-225 256 -113 143 -278 353 -367 466 l-163 205 0 -264 0 -264 68 -85 c37 -47
140 -179 230 -293 l163 -207 -40 -47 c-94 -113 -152 -249 -172 -403 -16 -132
10 -289 68 -405 45 -89 91 -125 163 -125 129 0 202 129 141 248 -48 95 -62
205 -37 299 32 121 90 198 192 259 106 63 177 79 282 64 188 -26 331 -167 364
-358 24 -141 -18 -258 -140 -385 -87 -90 -101 -125 -82 -196 13 -49 76 -107
125 -117 21 -4 54 -1 75 5 84 25 206 155 276 293 37 74 74 195 74 245 0 26 5
34 23 38 12 3 267 50 567 104 559 102 1875 343 1965 360 49 9 51 8 80 -23 153
-163 398 -233 613 -176 226 60 389 220 452 446 39 139 20 330 -45 445 -14 24
-29 54 -34 65 -15 33 -131 149 -181 180 -201 126 -440 139 -639 33 -30 -16
-55 -29 -57 -29 -8 0 -1760 1865 -1762 1877 -3 12 304 675 806 1743 68 146
131 279 138 297 l14 31 247 4 c228 3 251 5 287 24 93 48 117 158 55 245 -43
61 -6 59 -927 59 l-839 0 -33 -22z m1006 -3669 c406 -432 750 -797 763 -812
23 -26 24 -28 8 -69 -31 -87 -48 -180 -46 -256 l2 -77 -534 -98 c-723 -132
-1522 -278 -1757 -322 -106 -19 -198 -35 -205 -34 -7 0 -29 36 -50 79 -25 51
-63 105 -108 153 -38 41 -69 79 -69 83 0 5 243 528 541 1164 l540 1156 88 -91
c48 -49 420 -444 827 -876z"/>
<path d="M2857 4376 c-22 -8 -50 -25 -63 -37 -42 -39 -189 -352 -243 -514 -54
-164 -101 -369 -101 -441 0 -97 64 -165 158 -166 108 0 149 51 181 224 37 206
129 462 226 631 54 95 66 134 55 183 -22 96 -123 153 -213 120z"/>
<path d="M4416 6381 c-67 -32 -122 -87 -155 -152 -27 -53 -31 -73 -31 -139 0
-122 49 -212 149 -274 58 -36 107 -45 271 -51 225 -8 436 -39 625 -92 156 -43
210 -60 270 -84 11 -4 45 -18 75 -30 99 -38 300 -135 355 -170 17 -10 37 -22
45 -25 29 -13 246 -159 300 -203 30 -24 73 -57 95 -75 52 -40 321 -309 361
-361 18 -22 51 -65 75 -95 44 -54 190 -271 203 -300 3 -8 15 -28 25 -45 44
-69 140 -270 184 -385 118 -311 180 -604 192 -915 7 -179 19 -246 52 -298 64
-102 146 -147 269 -147 100 0 169 27 230 92 76 78 84 110 84 320 0 251 -40
552 -105 788 -6 25 -20 74 -30 110 -23 86 -71 224 -95 278 -11 23 -20 47 -20
52 0 18 -131 294 -181 381 -15 26 -40 71 -57 100 -32 58 -95 157 -112 176 -5
7 -10 15 -10 19 0 8 -204 271 -262 338 -49 56 -269 278 -314 316 -103 87 -151
125 -245 196 -58 43 -114 85 -125 92 -10 7 -44 28 -74 48 -30 20 -79 50 -109
66 -29 17 -74 42 -100 56 -47 27 -221 113 -276 137 -16 7 -41 18 -55 24 -153
66 -505 181 -555 181 -10 0 -41 6 -69 14 -49 14 -147 31 -321 57 -44 7 -179
13 -300 15 -198 3 -224 2 -259 -15z"/>
<path d="M4464 5246 c-64 -16 -112 -45 -159 -97 -58 -65 -75 -111 -75 -212 0
-75 4 -95 26 -139 32 -64 87 -118 151 -148 39 -19 72 -25 183 -31 136 -8 291
-29 365 -49 22 -7 65 -19 95 -27 102 -29 297 -114 375 -164 17 -10 37 -22 45
-26 23 -10 75 -47 78 -55 2 -5 10 -8 18 -8 8 0 14 -4 14 -8 0 -4 15 -16 33
-27 42 -24 308 -290 332 -332 11 -18 23 -33 27 -33 4 0 8 -6 8 -14 0 -8 3 -16
8 -18 8 -3 45 -55 55 -78 4 -8 16 -28 27 -45 48 -75 129 -264 163 -380 43
-146 65 -277 73 -445 8 -150 27 -208 88 -273 62 -66 135 -97 230 -97 88 0 142
18 204 68 102 82 128 172 112 396 -11 153 -39 335 -67 436 -30 108 -77 255
-89 280 -7 14 -22 50 -34 80 -28 70 -100 214 -134 268 -14 23 -26 46 -26 52 0
5 -4 10 -9 10 -5 0 -14 14 -21 30 -7 17 -16 30 -21 30 -5 0 -9 5 -9 10 0 6 -4
16 -10 23 -5 7 -42 55 -82 107 -93 122 -305 334 -435 433 -56 42 -106 77 -111
77 -6 0 -12 3 -14 8 -4 8 -65 52 -73 52 -3 0 -23 11 -45 25 -22 14 -86 48
-142 76 -57 28 -111 55 -120 60 -34 17 -269 97 -348 118 -119 31 -248 53 -380
66 -172 17 -238 18 -306 1z"/>
<path d="M940 2488 c-18 -13 -42 -35 -53 -49 -12 -17 -67 -211 -146 -520
l-128 -494 -94 -1 c-97 -1 -137 -13 -170 -50 -70 -81 -50 -208 40 -253 37 -19
49 -21 341 -46 304 -27 354 -29 393 -16 74 25 120 117 98 193 -25 84 -97 128
-209 128 -37 0 -54 4 -58 15 -3 8 46 218 110 465 64 248 116 470 116 494 0
118 -145 198 -240 134z"/>
<path d="M7025 2307 c-45 -21 -59 -42 -130 -183 -140 -283 -384 -587 -620
-774 -305 -241 -635 -389 -1020 -457 -142 -24 -538 -24 -680 0 -222 39 -398
95 -590 186 -446 213 -792 554 -1012 999 -70 141 -100 177 -159 188 -83 15
-154 -20 -186 -94 -28 -63 -19 -101 63 -263 122 -241 246 -414 434 -608 394
-405 870 -649 1445 -738 175 -27 550 -24 725 5 737 126 1334 520 1753 1160 79
119 200 358 208 409 8 53 -22 121 -66 153 -40 29 -121 37 -165 17z"/>
</g>
</svg>
